<?xml version="1.0" encoding="UTF-8"?>
<svg xmlns="http://www.w3.org/2000/svg" id="Clipper-BayPass_Logo_color" width="197.288" height="81.46" viewBox="0 0 197.288 81.46">
  <g id="FINAL_3" transform="translate(-2.362 -4.23)">
    <g id="Group_3" data-name="Group 3">
      <g id="Group_1" data-name="Group 1">
        <path id="Path_1" data-name="Path 1" d="M11.33,9.76c-.13-.28.14-.62.2-.69.42-.52,2.67-3.21,3.15-3.78.18-.22.29-.32.55-.32a.663.663,0,0,1,.53.32c.09.1,3.15,3.78,3.15,3.78s.34.39.2.69c-.18.36-.7.35-.7.35h-6.4C12.02,10.11,11.5,10.12,11.33,9.76Z" fill="#235488"></path>
        <path id="Path_2" data-name="Path 2" d="M9.35,18.47c-.2-.42.21-.93.3-1.05.64-.78,4.04-4.85,4.75-5.71.28-.33.45-.48.84-.48a1.056,1.056,0,0,1,.81.47c.14.16,4.75,5.71,4.75,5.71s.52.6.3,1.04a1.249,1.249,0,0,1-1.05.55H10.38C10.39,19,9.61,19,9.35,18.47Z" fill="#235488"></path>
        <path id="Path_3" data-name="Path 3" d="M7.12,30.1c-.27-.57.28-1.28.42-1.44.89-1.08,5.57-6.7,6.56-7.88a1.323,1.323,0,0,1,1.15-.66,1.417,1.417,0,0,1,1.11.66c.19.21,6.55,7.88,6.55,7.88s.71.83.42,1.43c-.36.75-1.44.73-1.44.73H8.55A1.61,1.61,0,0,1,7.12,30.1Z" fill="#235488"></path>
        <path id="Path_4" data-name="Path 4" d="M2.48,33.55c-.43.89.44,2,.65,2.25,1.39,1.69,8.74,10.5,10.29,12.36.6.72.97,1.04,1.81,1.04a2.216,2.216,0,0,0,1.74-1.03c.3-.33,10.28-12.37,10.28-12.37s1.12-1.3.65-2.25c-.56-1.16-2.25-1.15-2.25-1.15H4.73C4.73,32.41,3.04,32.39,2.48,33.55Z" fill="#235488"></path>
      </g>
      <g id="Group_2" data-name="Group 2">
        <path id="Path_5" data-name="Path 5" d="M29.54,12.56c-.23-.48.24-1.07.35-1.2.74-.89,4.65-5.59,5.48-6.58a1.1,1.1,0,0,1,.96-.55,1.19,1.19,0,0,1,.93.55c.16.18,5.47,6.58,5.47,6.58s.6.69.35,1.2c-.3.62-1.2.61-1.2.61H30.73C30.73,13.16,29.84,13.18,29.54,12.56Z" fill="#235488"></path>
        <path id="Path_6" data-name="Path 6" d="M26.09,27.71c-.34-.72.36-1.61.52-1.81,1.11-1.36,7.02-8.44,8.27-9.93.48-.58.78-.84,1.46-.84a1.826,1.826,0,0,1,1.4.83c.24.27,8.26,9.94,8.26,9.94s.9,1.04.52,1.81c-.46.94-1.81.92-1.81.92L27.9,28.62S26.55,28.64,26.09,27.71Z" fill="#235488"></path>
        <path id="Path_7" data-name="Path 7" d="M22.21,47.95c-.48-.99.49-2.22.72-2.5,1.54-1.87,9.7-11.65,11.42-13.71.67-.8,1.07-1.15,2.01-1.15a2.438,2.438,0,0,1,1.93,1.14c.33.37,11.4,13.71,11.4,13.71s1.24,1.44.72,2.5c-.63,1.29-2.5,1.27-2.5,1.27H24.71S22.84,49.23,22.21,47.95Z" fill="#235488"></path>
        <path id="Path_8" data-name="Path 8" d="M14.13,53.95c-.74,1.55.77,3.48,1.13,3.91,2.42,2.94,15.21,18.27,17.9,21.5,1.04,1.25,1.69,1.81,3.15,1.81a3.89,3.89,0,0,0,3.03-1.79c.53-.58,17.88-21.51,17.88-21.51s1.95-2.26,1.13-3.92c-.99-2.03-3.92-1.99-3.92-1.99H18.05S15.12,51.92,14.13,53.95Z" fill="#235488"></path>
      </g>
    </g>
    <g id="Group_4" data-name="Group 4">
      <path id="Path_9" data-name="Path 9" d="M93.87,35.3a12.642,12.642,0,0,1-11.51,7.43A13.116,13.116,0,0,1,69.38,29.68,12.962,12.962,0,0,1,82.26,16.83a12.748,12.748,0,0,1,11.73,7.6H88.74a8.2,8.2,0,0,0-14.77,5.31c0,4.68,3.87,8.68,8.28,8.68a8.156,8.156,0,0,0,6.25-3.13h5.37Z" fill="#235488"></path>
      <path id="Path_10" data-name="Path 10" d="M97.46,17.34h4.6V37.92h7.6v4.31H97.46Z" fill="#235488"></path>
      <path id="Path_11" data-name="Path 11" d="M113.25,17.34h4.61V42.23h-4.61Z" fill="#235488"></path>
      <path id="Path_12" data-name="Path 12" d="M121.44,17.34h6.25c2.66,0,4.94,0,7.3,1.98a7.385,7.385,0,0,1,2.35,5.72,7.385,7.385,0,0,1-2.35,5.72c-2.36,1.98-4.64,1.98-7.3,1.98h-1.65v9.48h-4.6Zm4.6,11.1h1.48c1.99,0,5.21-.14,5.21-3.4s-3.16-3.4-5.04-3.4h-1.65v6.8Z" fill="#235488"></path>
      <path id="Path_13" data-name="Path 13" d="M140.85,17.34h6.25c2.66,0,4.95,0,7.3,1.98a7.359,7.359,0,0,1,2.36,5.72,7.359,7.359,0,0,1-2.36,5.72c-2.35,1.98-4.64,1.98-7.3,1.98h-1.64v9.48h-4.61Zm4.61,11.1h1.48c1.98,0,5.21-.14,5.21-3.4s-3.16-3.4-5.04-3.4h-1.64v6.8Z" fill="#235488"></path>
      <path id="Path_14" data-name="Path 14" d="M160.35,17.34h13.38v4.3h-8.78v6.09h8.41v4.31h-8.41v5.88h8.78v4.31H160.35Z" fill="#235488"></path>
      <path id="Path_15" data-name="Path 15" d="M177.33,17.34h7.64c2.86,0,4.64.54,6.05,1.68a7.7,7.7,0,0,1,2.93,6.02,8.678,8.678,0,0,1-2.39,5.95,8.074,8.074,0,0,1-4.14,2.05l6.76,9.18H188.6L182,32.7h-.07v9.52h-4.61V17.34Zm4.6,11.91h2.97c3.8,0,4.44-2.52,4.44-3.84,0-1.38-.84-3.77-4.44-3.77h-2.97Z" fill="#235488"></path>
    </g>
    <g id="Group_5" data-name="Group 5">
      <path id="Path_16" data-name="Path 16" d="M199.27,41.81a1.826,1.826,0,1,1-1.81-1.78A1.789,1.789,0,0,1,199.27,41.81Zm-3.2,0a1.388,1.388,0,0,0,1.39,1.42,1.359,1.359,0,0,0,1.35-1.41,1.371,1.371,0,1,0-2.74-.01Zm1.1.92h-.41V40.95a5.158,5.158,0,0,1,.68-.05.93.93,0,0,1,.61.14.452.452,0,0,1,.18.38.446.446,0,0,1-.37.42v.02c.17.05.26.19.31.43a1.433,1.433,0,0,0,.13.43h-.43a1.505,1.505,0,0,1-.14-.43c-.03-.18-.14-.27-.37-.27h-.19Zm.01-.99h.19c.23,0,.41-.08.41-.26,0-.16-.12-.27-.38-.27a1.132,1.132,0,0,0-.23.02v.51Z" fill="#235488"></path>
    </g>
  </g>
  <g id="Layer_1" transform="translate(-2.362 -4.23)">
    <g id="Group_6" data-name="Group 6">
      <path id="Path_17" data-name="Path 17" d="M71.2,79.55V55.87h6.08c4.96,0,7.62,2.72,7.62,6.3,0,1.95-.7,3.26-2.59,4.77a6.2,6.2,0,0,1,3.94,5.82c0,3.23-1.82,6.78-8,6.78H71.2Zm6.11-13.47c4.54,0,5.22-2.62,5.22-4,0-1.76-1.02-4.06-5.41-4.06H73.57v8.06Zm.74,11.32c3.04,0,5.82-1.22,5.82-4.64,0-2.69-2.34-4.54-5.82-4.54H73.57V77.4Z" fill="#235488"></path>
      <path id="Path_18" data-name="Path 18" d="M104.83,79.55V76.48h-.06a8.054,8.054,0,0,1-6.82,3.49,9.188,9.188,0,1,1,0-18.37,7.9,7.9,0,0,1,6.82,3.52h.06V62.05h2.24v17.5h-2.24Zm.13-8.74a7.117,7.117,0,0,0-7.04-7.2,7.167,7.167,0,1,0,7.04,7.2Z" fill="#235488"></path>
      <path id="Path_19" data-name="Path 19" d="M113.31,85.69l3.04-6.72-6.82-16.93h2.37l5.57,13.95,5.95-13.95h2.37L115.65,85.69h-2.34Z" fill="#235488"></path>
      <path id="Path_20" data-name="Path 20" d="M128.35,79.55V55.87h8a13.435,13.435,0,0,1,5.66.9,7.584,7.584,0,0,1,4.16,7.1c0,4.38-2.43,8.25-9.22,8.25h-2.82v7.42h-5.78Zm8.39-12.74c2.43,0,3.65-.83,3.65-2.85,0-1.92-1.18-2.78-3.87-2.78h-2.37v5.63Z" fill="#0775b2"></path>
      <path id="Path_21" data-name="Path 21" d="M161.18,79.55V77.63h-.06c-.77,1.57-2.88,2.53-5.22,2.53-5.25,0-8.9-4.13-8.9-9.5,0-5.25,3.81-9.47,8.9-9.47a6.013,6.013,0,0,1,5.22,2.5h.06V61.8h5.31V79.56h-5.31Zm0-8.9a4.5,4.5,0,0,0-4.51-4.51,4.53,4.53,0,1,0,4.51,4.51Z" fill="#0775b2"></path>
      <path id="Path_22" data-name="Path 22" d="M177.92,66.78c-.03-1.02-.77-1.34-1.63-1.34-.9,0-1.54.51-1.54,1.18,0,.96.86,1.44,3.33,2.08,4.22,1.12,5.6,2.82,5.6,5.41,0,3.71-3.2,6.05-7.23,6.05-4,0-6.85-2.27-7.23-5.89h5.28a1.832,1.832,0,0,0,2.02,1.63c.93,0,1.86-.54,1.86-1.38,0-.99-.61-1.5-3.26-2.34-4.48-1.38-5.66-3.14-5.66-5.22,0-3.52,3.3-5.79,6.88-5.79,3.84,0,6.56,2.11,6.82,5.6h-5.24Z" fill="#0775b2"></path>
      <path id="Path_23" data-name="Path 23" d="M193.89,66.78c-.03-1.02-.77-1.34-1.63-1.34-.9,0-1.54.51-1.54,1.18,0,.96.86,1.44,3.33,2.08,4.22,1.12,5.6,2.82,5.6,5.41,0,3.71-3.2,6.05-7.23,6.05-4,0-6.85-2.27-7.23-5.89h5.28a1.832,1.832,0,0,0,2.02,1.63c.93,0,1.86-.54,1.86-1.38,0-.99-.61-1.5-3.26-2.34-4.48-1.38-5.66-3.14-5.66-5.22,0-3.52,3.3-5.79,6.88-5.79,3.84,0,6.56,2.11,6.82,5.6h-5.24Z" fill="#0775b2"></path>
    </g>
  </g>
</svg>
